<?xml version="1.0" encoding="utf-8"?>
<!-- Generator: Adobe Illustrator 23.1.0, SVG Export Plug-In . SVG Version: 6.00 Build 0)  -->
<svg version="1.1" id="Capa_1" xmlns="http://www.w3.org/2000/svg" xmlns:xlink="http://www.w3.org/1999/xlink" x="0px" y="0px"
	 viewBox="0 0 500 230" style="enable-background:new 0 0 500 230;" xml:space="preserve">
<style type="text/css">
	.st0{fill:#3F3DA6;}
	.st1{fill:#212121;}
</style>
<g>
	<path class="st0" d="M470.6,195.8h-20.3c-1.7,0-3-1.4-3-3v-20.3c0-1.7,1.4-3,3-3h20.3c1.7,0,3,1.4,3,3v20.3
		C473.6,194.5,472.3,195.8,470.6,195.8z"/>
	<path class="st1" d="M483.8,143.9h-46.7c-1.7,0-3-1.4-3-3V94.2c0-1.7,1.4-3,3-3h46.7c1.7,0,3,1.3,3,3v46.7
		C486.8,142.5,485.5,143.9,483.8,143.9z"/>
	<path class="st0" d="M426.4,86.5h-73c-1.7,0-3-1.3-3-3V10.4c0-1.7,1.4-3,3-3h73c1.7,0,3,1.3,3,3v73.1
		C429.5,85.2,428.1,86.5,426.4,86.5z"/>
	<path class="st1" d="M117.6,86.5v26.3H81.8v108.6H48.9V112.8H13.2V86.5H117.6z"/>
	<path class="st1" d="M109.6,161.5c3-6,7.1-10.7,12.3-13.9c5.2-3.3,11-4.9,17.4-4.9c5.5,0,10.3,1.1,14.4,3.3
		c4.1,2.2,7.3,5.1,9.5,8.8v-11H187v77.6h-23.8v-11c-2.3,3.6-5.5,6.5-9.7,8.8c-4.1,2.2-8.9,3.3-14.4,3.3c-6.3,0-12.1-1.6-17.3-4.9
		c-5.2-3.3-9.3-8-12.3-14.1c-3-6.1-4.5-13.1-4.5-21.1C105.1,174.5,106.6,167.5,109.6,161.5z M158.3,168.6c-3.3-3.4-7.3-5.1-12-5.1
		s-8.7,1.7-12,5.1s-4.9,8.1-4.9,14c0,5.9,1.6,10.6,4.9,14.1c3.3,3.5,7.3,5.2,12,5.2s8.7-1.7,12-5.1s4.9-8.1,4.9-14.1
		C163.3,176.7,161.6,172,158.3,168.6z"/>
	<path class="st1" d="M215.1,219.1c-5.3-2.3-9.5-5.5-12.5-9.5c-3.1-4-4.8-8.6-5.1-13.6H221c0.3,2.7,1.5,4.9,3.8,6.5s5,2.5,8.2,2.5
		c3,0,5.3-0.6,6.9-1.7c1.6-1.2,2.4-2.7,2.4-4.5c0-2.2-1.2-3.9-3.5-4.9c-2.3-1.1-6.1-2.3-11.3-3.6c-5.6-1.3-10.2-2.7-13.9-4.1
		c-3.7-1.4-6.9-3.7-9.6-6.8s-4-7.3-4-12.6c0-4.4,1.2-8.5,3.7-12.2s6.1-6.6,10.9-8.7s10.5-3.2,17-3.2c9.7,0,17.4,2.4,23,7.2
		c5.6,4.8,8.8,11.2,9.7,19.2h-22c-0.4-2.7-1.6-4.8-3.6-6.4c-2-1.6-4.6-2.4-7.9-2.4c-2.8,0-4.9,0.5-6.4,1.6s-2.2,2.5-2.2,4.4
		c0,2.2,1.2,3.9,3.6,5c2.4,1.1,6.1,2.2,11.1,3.3c5.8,1.5,10.4,2.9,14.1,4.4c3.6,1.4,6.8,3.8,9.5,7c2.7,3.2,4.1,7.5,4.2,12.9
		c0,4.6-1.3,8.6-3.8,12.2c-2.5,3.6-6.2,6.4-11,8.4c-4.8,2-10.3,3.1-16.6,3.1C226.5,222.6,220.4,221.4,215.1,219.1z"/>
	<path class="st1" d="M373.4,219.1c-5.3-2.3-9.5-5.5-12.5-9.5c-3.1-4-4.8-8.6-5.1-13.6h23.5c0.3,2.7,1.5,4.9,3.8,6.5s5,2.5,8.2,2.5
		c3,0,5.3-0.6,6.9-1.7c1.6-1.2,2.4-2.7,2.4-4.5c0-2.2-1.2-3.9-3.5-4.9s-6.1-2.3-11.3-3.6c-5.6-1.3-10.2-2.7-13.9-4.1
		c-3.7-1.4-6.9-3.7-9.6-6.8s-4-7.3-4-12.6c0-4.4,1.2-8.5,3.7-12.2s6.1-6.6,10.9-8.7s10.5-3.2,17-3.2c9.7,0,17.4,2.4,23,7.2
		c5.6,4.8,8.8,11.2,9.7,19.2h-22c-0.4-2.7-1.5-4.8-3.5-6.4c-2-1.6-4.6-2.4-7.9-2.4c-2.8,0-4.9,0.5-6.4,1.6c-1.5,1.1-2.2,2.5-2.2,4.4
		c0,2.2,1.2,3.9,3.5,5s6,2.2,11.1,3.3c5.8,1.5,10.4,2.9,14,4.4c3.6,1.4,6.8,3.8,9.5,7c2.7,3.2,4.1,7.5,4.2,12.9
		c0,4.6-1.3,8.6-3.8,12.2c-2.5,3.6-6.2,6.4-11,8.4c-4.8,2-10.3,3.1-16.6,3.1C384.8,222.6,378.7,221.4,373.4,219.1z"/>
	<path class="st1" d="M324.1,221.5l-23.6-32.6v32.6h-23.8v-103h23.8v56.9l23.5-31.6h29.4L321,182.8l32.5,38.7L324.1,221.5
		L324.1,221.5z"/>
</g>
</svg>
